# xmcd
#
# Track frame offsets: 
#        150
#        23782
#        49437
#        66101
#        83058
#        99137
#        124085
#        146125
#        188498
#        205583
#        222438
#        245081
#        263909
#        278659
#        299254
#        316501
#        334931
#
# Disc length: 4803 seconds
#
# Revision: 2
# Processed by: cddbd v1.5.2PL0 Copyright (c) Steve Scherf et al.
# Submitted via: ExactAudioCopy v1.3
#
DISCID=fa12c111
DTITLE=Various Artist - Akella Presents - Blues-Rock - vol.23  CD2  N
DTITLE=ew!
DYEAR=2013
DGENRE=Rock
TTITLE0=DERRINGER, BOGERT and APPICE - Blood From A Stone
TTITLE1=CRAIG ERICKSON - Torrential Download Blues
TTITLE2=BUDDAHEADS - All Night Long
TTITLE3=ROB ORLEMANS - When The Haze Is Gone
TTITLE4=SIDEBURN - The Taker
TTITLE5=LARRY MILLER - Reel Me In
TTITLE6=BONAFIDE - Sick
TTITLE7=SUNSET HEIGHTS - Dreamin' Girl
TTITLE8=GUITAR PETE - Turning Off
TTITLE9=HARDBONE - Booze, Blood, Blackout
TTITLE10=ERIC SARDINAS and BIG MOTOR - Just Like That
TTITLE11=ROB TOGNONI - The Rain
TTITLE12=GENOCIDE - Stranded
TTITLE13=SOUL RIVER DOGS - Hell No!
TTITLE14=SWAMPdaWAMP - Shame
TTITLE15=VDELLI - Loose endz
TTITLE16=JIMMY BARNES and JOE BONAMASSA - Too Much Ain't Enough Love
EXTD=
EXTT0=
EXTT1=
EXTT2=
EXTT3=
EXTT4=
EXTT5=
EXTT6=
EXTT7=
EXTT8=
EXTT9=
EXTT10=
EXTT11=
EXTT12=
EXTT13=
EXTT14=
EXTT15=
EXTT16=
PLAYORDER=
